<?xml version="1.0" encoding="UTF-8" standalone="no"?><!DOCTYPE svg PUBLIC "-//W3C//DTD SVG 1.1//EN" "http://www.w3.org/Graphics/SVG/1.1/DTD/svg11.dtd"><svg width="100%" height="100%" viewBox="0 0 512 512" version="1.1" xmlns="http://www.w3.org/2000/svg" xmlns:xlink="http://www.w3.org/1999/xlink" xml:space="preserve" xmlns:serif="http://www.serif.com/" style="fill-rule:evenodd;clip-rule:evenodd;stroke-linecap:round;stroke-linejoin:round;stroke-miterlimit:1.5;"><path id="gear" d="M113.882,232.899l88.096,14.48c-0.676,4.212 -0.837,8.492 -0.478,12.744c2.418,28.685 27.487,50.025 55.947,47.626c28.46,-2.399 49.603,-27.635 47.185,-56.32c-2.418,-28.685 -27.487,-50.025 -55.947,-47.626c-14.897,1.256 -28.519,8.944 -37.358,21.084l-71.976,-53.265c24.081,-33.076 61.193,-54.021 101.779,-57.442c77.537,-6.536 145.836,51.605 152.423,129.754c6.588,78.149 -51.014,146.903 -128.551,153.439c-77.537,6.536 -145.836,-51.605 -152.423,-129.754c-0.977,-11.585 -0.539,-23.246 1.304,-34.72Z" style="fill:#323550;"/><path d="M416.538,88.89l-141.84,-22.345c-2.835,-0.447 -4.775,-3.111 -4.328,-5.946c0.447,-2.835 3.111,-4.775 5.946,-4.328l141.84,22.345c2.835,0.447 4.775,3.111 4.328,5.946c-0.447,2.835 -3.111,4.775 -5.946,4.328Z" style="fill:#323550;"/><path d="M345.416,188.068l66.211,-37.883c2.683,-1.535 6.108,-0.603 7.643,2.08c1.535,2.683 0.603,6.108 -2.08,7.643l-66.211,37.883c-2.683,1.535 -6.108,0.603 -7.643,-2.08c-1.535,-2.683 -0.603,-6.108 2.08,-7.643Z" style="fill:#323550;"/><path d="M355.005,161.079l62.363,-78.575c1.631,-2.054 4.622,-2.399 6.677,-0.768c2.054,1.631 2.399,4.622 0.768,6.677l-62.363,78.575c-1.631,2.054 -4.622,2.399 -6.677,0.768c-2.054,-1.631 -2.399,-4.622 -0.768,-6.677Z" style="fill:#323550;"/><path d="M277.103,67.657c-3.333,-0.122 -5.954,-2.546 -5.849,-5.411c0.105,-2.865 2.896,-5.092 6.228,-4.97c3.333,0.122 5.954,2.546 5.849,5.411c-0.105,2.865 -2.896,5.092 -6.228,4.97Z" style="fill:#fff;stroke:#323550;stroke-width:2.5px;"/><path d="M414.765,148.789c2.512,-1.38 5.673,-0.461 7.054,2.051c1.38,2.512 0.461,5.673 -2.051,7.054c-2.512,1.38 -5.673,0.461 -7.054,-2.051c-1.38,-2.512 -0.461,-5.673 2.051,-7.054Z" style="fill:#fff;stroke:#323550;stroke-width:2.5px;"/><rect x="227.608" y="87.112" width="50.923" height="30.588" style="fill:#323550;"/><path d="M361.811,129.085l-16.025,26.054l-43.376,-26.678l16.025,-26.054l43.376,26.678Z" style="fill:#323550;"/><path d="M417.407,230.145l-29.199,9.114l-15.172,-48.61l29.199,-9.114l15.172,48.61Z" style="fill:#323550;"/><path d="M397.037,330.523l-28.798,-10.312l17.167,-47.942l28.798,10.312l-17.167,47.942Z" style="fill:#323550;"/><path d="M181.795,102.406l19.618,23.468l-39.07,32.66l-19.618,-23.468l39.07,-32.66Z" style="fill:#323550;"/><path d="M89.54,261.009l30.286,-4.29l7.142,50.42l-30.286,4.29l-7.142,-50.42Z" style="fill:#323550;"/><path d="M113.811,353.159l20.573,-22.636l37.684,34.25l-20.573,22.636l-37.684,-34.25Z" style="fill:#323550;"/><path d="M113.811,353.159l20.573,-22.636l37.684,34.25l-20.573,22.636l-37.684,-34.25Z" style="fill:#323550;"/><path d="M300.574,417.712l-13.177,-27.604l45.955,-21.938l13.177,27.604l-45.955,21.938Z" style="fill:#323550;"/><path d="M189.057,414.231l5.498,-30.09l50.094,9.152l-5.498,30.09l-50.094,-9.152Z" style="fill:#323550;"/><g id="initials" transform="matrix(366.666667,0,0,366.666667,390.790385,328.867839)"></g><text x="158.58px" y="328.868px" style="font-family:'CalifornianFB-Bold', 'Californian FB', serif;font-weight:700;font-size:366.667px;fill:#6bc1a4;">jr</text></svg>